<svg xmlns="http://www.w3.org/2000/svg" width="300" height="200" viewBox="0 0 300 200" fill="none">
  <rect width="300" height="200" fill="#E9ECEF"/>
  <path d="M150 80C138.954 80 130 88.9543 130 100C130 111.046 138.954 120 150 120C161.046 120 170 111.046 170 100C170 88.9543 161.046 80 150 80ZM150 130C134.477 130 100 137.477 100 153V160H200V153C200 137.477 165.523 130 150 130Z" fill="#ADB5BD"/>
  <path d="M120 60L180 60L180 70L120 70L120 60Z" fill="#ADB5BD"/>
  <path d="M120 130L180 130L180 140L120 140L120 130Z" fill="#ADB5BD"/>
</svg>
